# xmcd
#
# Track frame offsets:
#	150
#	10483
#	20443
#	34978
#	46560
#	59360
#	73113
#
# Disc length: 1223 seconds
#
# Revision: 1
# Processed by: cddbd v1.5PL3 Copyright (c) Steve Scherf et al.
# Submitted via: audiograbber 1.81.02
#
DISCID=5704c507
DTITLE=The Andersons - The Andersons
DYEAR=1998
DGENRE=Country
TTITLE0=Sunday Driving
TTITLE1=Room To Dance
TTITLE2=Don't Fall In Love (If You Can't Stay)
TTITLE3=I'm Taken
TTITLE4=Dancin' With Elvis
TTITLE5=Let's Talk About Me
TTITLE6=Be Love
EXTD=Cheryl and Kristi Anderson
EXTT0=
EXTT1=
EXTT2=
EXTT3=
EXTT4=
EXTT5=
EXTT6=
PLAYORDER=
